<svg viewBox="0 0 680 680" xmlns="http://www.w3.org/2000/svg">
  <rect width="680" height="680" fill="#0A0A0F"/>
  <circle cx="340" cy="280" r="155" fill="none" stroke="#7C3AED" stroke-width="1.5" opacity="0.3"/>
  <circle cx="340" cy="280" r="110" fill="#7C3AED" opacity="0.08"/>
  <polygon points="340,160 410,200 410,280 340,320 270,280 270,200" fill="#1E1B2E" stroke="#7C3AED" stroke-width="1.5"/>
  <rect x="299" y="238" width="8" height="32" fill="#EF4444" rx="1"/>
  <rect x="316" y="218" width="8" height="40" fill="#22C55E" rx="1"/>
  <rect x="333" y="208" width="8" height="44" fill="#22C55E" rx="1"/>
  <rect x="350" y="222" width="8" height="30" fill="#F59E0B" rx="1"/>
  <rect x="367" y="200" width="8" height="52" fill="#22C55E" rx="1"/>
  <polyline points="299,262 316,248 333,232 350,242 371,220" fill="none" stroke="#7C3AED" stroke-width="1.5" stroke-linecap="round"/>
  <circle cx="340" cy="160" r="4" fill="#7C3AED"/>
  <circle cx="410" cy="200" r="4" fill="#7C3AED"/>
  <circle cx="410" cy="280" r="4" fill="#7C3AED"/>
  <circle cx="340" cy="320" r="4" fill="#7C3AED"/>
  <circle cx="270" cy="280" r="4" fill="#7C3AED"/>
  <circle cx="270" cy="200" r="4" fill="#7C3AED"/>
</svg>
